<?xml version="1.0" encoding="UTF-8"?>
<svg version="1.1" xmlns="http://www.w3.org/2000/svg" width="244" height="150">
<path d="M0 0 C5.08907059 3.31943697 8.58227604 7.70688908 11.05859375 13.2421875 C11.88893049 15.08844392 11.88893049 15.08844392 14.12109375 15.6171875 C14.73984375 15.6996875 15.35859375 15.7821875 15.99609375 15.8671875 C16.97857899 19.9199391 17.07768949 23.70580487 16.99609375 27.8671875 C18.23359375 27.3721875 18.23359375 27.3721875 19.49609375 26.8671875 C23.58349205 25.69935941 26.76532719 25.721299 30.99609375 25.8671875 C31.98609375 27.8471875 31.98609375 27.8471875 32.99609375 29.8671875 C31.32942708 31.53385417 29.66276042 33.20052083 27.99609375 34.8671875 C26.66578125 36.259375 26.66578125 36.259375 25.30859375 37.6796875 C22.99609375 39.8671875 22.99609375 39.8671875 20.99609375 39.8671875 C20.93421875 40.5890625 20.87234375 41.3109375 20.80859375 42.0546875 C19.74071865 45.75117824 17.88789559 47.39857618 14.99609375 49.8671875 C14.33609375 49.8671875 13.67609375 49.8671875 12.99609375 49.8671875 C13.02751465 51.01550049 13.02751465 51.01550049 13.05957031 52.18701172 C13.14347737 55.70526635 13.19498971 59.22330953 13.24609375 62.7421875 C13.27960938 63.94617188 13.313125 65.15015625 13.34765625 66.390625 C13.44534289 75.37779593 12.34079168 82.3531027 6.91796875 89.671875 C6.20125 90.35507813 5.48453125 91.03828125 4.74609375 91.7421875 C4.0396875 92.44085938 3.33328125 93.13953125 2.60546875 93.859375 C-3.88479629 98.85338133 -9.3486068 100.52427192 -17.50390625 100.3671875 C-18.30699219 100.38265625 -19.11007813 100.398125 -19.9375 100.4140625 C-27.47316346 100.36520893 -33.33283082 97.78330706 -38.94140625 92.7421875 C-39.50730469 92.24460937 -40.07320312 91.74703125 -40.65625 91.234375 C-42.00390625 89.8671875 -42.00390625 89.8671875 -43.00390625 87.8671875 C-44.17953125 87.7846875 -45.35515625 87.7021875 -46.56640625 87.6171875 C-53.04827751 86.96550924 -57.16998325 82.79280665 -61.50390625 78.2421875 C-63.00390625 75.8671875 -63.00390625 75.8671875 -63.00390625 71.8671875 C-63.99390625 71.5371875 -64.98390625 71.2071875 -66.00390625 70.8671875 C-66.00390625 70.2071875 -66.00390625 69.5471875 -66.00390625 68.8671875 C-66.99390625 68.5371875 -67.98390625 68.2071875 -69.00390625 67.8671875 C-72.00390625 63.53385417 -72.00390625 63.53385417 -72.00390625 60.8671875 C-68.04390625 60.8671875 -64.08390625 60.8671875 -60.00390625 60.8671875 C-60.00390625 61.5271875 -60.00390625 62.1871875 -60.00390625 62.8671875 C-59.34390625 62.8671875 -58.68390625 62.8671875 -58.00390625 62.8671875 C-57.67390625 59.5671875 -57.34390625 56.2671875 -57.00390625 52.8671875 C-54.52890625 52.3721875 -54.52890625 52.3721875 -52.00390625 51.8671875 C-51.67390625 52.8571875 -51.34390625 53.8471875 -51.00390625 54.8671875 C-50.34390625 54.8671875 -49.68390625 54.8671875 -49.00390625 54.8671875 C-49.00503418 53.73812988 -49.00616211 52.60907227 -49.00732422 51.44580078 C-49.00362404 47.21467145 -48.96056785 42.9846633 -48.90625 38.75390625 C-48.88819883 36.93073805 -48.88050155 35.10743428 -48.88378906 33.28417969 C-48.89764028 20.63802098 -47.99783673 12.73827854 -39.44140625 2.9296875 C-27.478107 -7.19310417 -13.36359809 -7.55447066 0 0 Z M-38.77734375 7.22265625 C-45.76808127 15.52569012 -45.50385562 23.47542461 -45.25390625 33.8671875 C-45.23380961 35.32419419 -45.21556443 36.78122765 -45.19921875 38.23828125 C-45.15547526 41.781813 -45.08662392 45.32432627 -45.00390625 48.8671875 C-44.34390625 48.2071875 -43.68390625 47.5471875 -43.00390625 46.8671875 C-42.01390625 46.8671875 -41.02390625 46.8671875 -40.00390625 46.8671875 C-39.67390625 49.5071875 -39.34390625 52.1471875 -39.00390625 54.8671875 C-38.34390625 54.8671875 -37.68390625 54.8671875 -37.00390625 54.8671875 C-37.01550781 55.59421875 -37.02710938 56.32125 -37.0390625 57.0703125 C-37.08817874 62.54326507 -36.92815029 67.8073719 -36.25390625 73.2421875 C-35.87801403 77.06125241 -35.7788568 79.38474517 -37.94140625 82.6171875 C-38.62203125 83.3596875 -39.30265625 84.1021875 -40.00390625 84.8671875 C-38.05276429 89.65635413 -34.73971958 92.7978025 -30.37890625 95.484375 C-26.19961676 97.19672278 -22.72920562 97.44189201 -18.25390625 97.4296875 C-17.46129395 97.4301709 -16.66868164 97.4306543 -15.85205078 97.43115234 C-9.21928654 97.24257508 -3.88727007 95.60331422 0.99609375 90.8671875 C0.99609375 90.2071875 0.99609375 89.5471875 0.99609375 88.8671875 C1.65609375 88.8671875 2.31609375 88.8671875 2.99609375 88.8671875 C9.44016536 81.17532484 10.18983489 74.5542444 9.99609375 64.8671875 C8.05534514 65.14336283 8.05534514 65.14336283 5.99609375 65.8671875 C5.33609375 66.8571875 4.67609375 67.8471875 3.99609375 68.8671875 C3.66609375 67.8771875 3.33609375 66.8871875 2.99609375 65.8671875 C2.00609375 65.5371875 1.01609375 65.2071875 -0.00390625 64.8671875 C-0.33390625 64.2071875 -0.66390625 63.5471875 -1.00390625 62.8671875 C1.30609375 63.5271875 3.61609375 64.1871875 5.99609375 64.8671875 C5.99609375 64.2071875 5.99609375 63.5471875 5.99609375 62.8671875 C7.31609375 62.8671875 8.63609375 62.8671875 9.99609375 62.8671875 C9.99609375 59.2371875 9.99609375 55.6071875 9.99609375 51.8671875 C8.34609375 52.5271875 6.69609375 53.1871875 4.99609375 53.8671875 C2.68609375 53.8671875 0.37609375 53.8671875 -2.00390625 53.8671875 C-2.33390625 65.0871875 -2.66390625 76.3071875 -3.00390625 87.8671875 C-12.57390625 87.5371875 -22.14390625 87.2071875 -32.00390625 86.8671875 C-32.11862198 80.65469365 -32.21818123 74.44586307 -32.27856445 68.2331543 C-32.30372988 66.11942098 -32.33786551 64.00577485 -32.38110352 61.89233398 C-32.44166566 58.85638952 -32.47009534 55.82159388 -32.4921875 52.78515625 C-32.51799393 51.83819382 -32.54380035 50.89123138 -32.57038879 49.91557312 C-32.57144014 47.46385975 -32.5487174 45.25823876 -32.00390625 42.8671875 C-29.50610352 41.12597656 -29.50610352 41.12597656 -27.00390625 39.8671875 C-26.2978186 37.042303 -26.2978186 37.042303 -26.48046875 33.80859375 C-26.49207031 32.61814453 -26.50367187 31.42769531 -26.515625 30.20117188 C-26.55300781 28.95658203 -26.59039062 27.71199219 -26.62890625 26.4296875 C-26.64308594 25.18896484 -26.65726563 23.94824219 -26.671875 22.66992188 C-26.74943617 17.88956857 -26.84028559 13.50477669 -28.00390625 8.8671875 C-27.00390625 7.8671875 -27.00390625 7.8671875 -23.37890625 7.6796875 C-19.21407483 7.78436908 -15.81104472 8.00094315 -12.00390625 9.8671875 C-8.21968756 15.95243293 -8.34460002 23.92408337 -8.00390625 30.8671875 C-5.63928908 27.32026175 -5.61957298 25.06571341 -5.34765625 20.92578125 C-5.00390625 18.8671875 -5.00390625 18.8671875 -3.00390625 16.8671875 C-2.54228198 14.43466089 -2.54228198 14.43466089 -2.37890625 11.7421875 C-2.30414063 10.83210938 -2.229375 9.92203125 -2.15234375 8.984375 C-2.10335937 8.28570312 -2.054375 7.58703125 -2.00390625 6.8671875 C-0.68390625 6.5371875 0.63609375 6.2071875 1.99609375 5.8671875 C1.33609375 5.8671875 0.67609375 5.8671875 -0.00390625 5.8671875 C-0.00390625 5.2071875 -0.00390625 4.5471875 -0.00390625 3.8671875 C-1.58465189 3.04966447 -3.16861848 2.23836753 -4.75390625 1.4296875 C-5.635625 0.97722656 -6.51734375 0.52476563 -7.42578125 0.05859375 C-19.14083968 -5.35518325 -29.82321047 -0.87106357 -38.77734375 7.22265625 Z M2.99609375 8.8671875 C3.32609375 13.4871875 3.65609375 18.1071875 3.99609375 22.8671875 C5.64609375 21.5471875 7.29609375 20.2271875 8.99609375 18.8671875 C8.38140493 14.87171014 6.34149999 12.09212108 3.99609375 8.8671875 C3.66609375 8.8671875 3.33609375 8.8671875 2.99609375 8.8671875 Z M-26.00390625 9.8671875 C-25.01390625 12.8371875 -24.02390625 15.8071875 -23.00390625 18.8671875 C-19.37390625 18.8671875 -15.74390625 18.8671875 -12.00390625 18.8671875 C-12.85254905 15.39546695 -13.44029936 13.35027912 -16.19140625 10.9921875 C-19.61295513 9.62356795 -22.35145165 9.65233723 -26.00390625 9.8671875 Z M-0.00390625 14.8671875 C-0.33390625 17.8371875 -0.66390625 20.8071875 -1.00390625 23.8671875 C1.28623028 20.4319827 1.17452348 18.8818565 0.99609375 14.8671875 C0.66609375 14.8671875 0.33609375 14.8671875 -0.00390625 14.8671875 Z M12.99609375 18.8671875 C9.05602725 23.01462593 6.11435705 27.15432065 4.99609375 32.8671875 C5.63520647 35.32692735 5.63520647 35.32692735 6.99609375 36.8671875 C10.49651305 34.38004747 11.74838977 32.89534572 12.7734375 28.640625 C13.259137 25.38608383 13.67486101 22.14184367 13.99609375 18.8671875 C13.66609375 18.8671875 13.33609375 18.8671875 12.99609375 18.8671875 Z M-24.00390625 21.8671875 C-24.00390625 26.4871875 -24.00390625 31.1071875 -24.00390625 35.8671875 C-20.04390625 35.8671875 -16.08390625 35.8671875 -12.00390625 35.8671875 C-12.00390625 31.2471875 -12.00390625 26.6271875 -12.00390625 21.8671875 C-14.13859375 21.58875 -14.13859375 21.58875 -16.31640625 21.3046875 C-17.11691406 21.20027344 -17.91742188 21.09585938 -18.7421875 20.98828125 C-21.17207741 20.71963572 -21.17207741 20.71963572 -24.00390625 21.8671875 Z M23.99609375 28.8671875 C17.91336851 31.1646197 12.75378223 34.48510601 7.99609375 38.8671875 C8.98609375 39.1971875 9.97609375 39.5271875 10.99609375 39.8671875 C13.6746131 38.27300679 13.6746131 38.27300679 16.43359375 36.0546875 C19.53516696 33.67048497 22.415189 31.46716622 25.99609375 29.8671875 C25.33609375 29.5371875 24.67609375 29.2071875 23.99609375 28.8671875 Z M-2.00390625 31.8671875 C-2.66390625 35.1671875 -3.32390625 38.4671875 -4.00390625 41.8671875 C-2.51890625 42.8571875 -2.51890625 42.8571875 -1.00390625 43.8671875 C0.58503447 42.27824678 0.16607786 40.61917326 0.18359375 38.4296875 C0.20486328 37.22505859 0.20486328 37.22505859 0.2265625 35.99609375 C0.19771731 33.65088117 0.19771731 33.65088117 -2.00390625 31.8671875 Z M-24.00390625 38.8671875 C-24.33390625 39.8571875 -24.66390625 40.8471875 -25.00390625 41.8671875 C-24.67390625 42.5271875 -24.34390625 43.1871875 -24.00390625 43.8671875 C-24.78765625 43.8259375 -25.57140625 43.7846875 -26.37890625 43.7421875 C-29.16506744 43.57990016 -29.16506744 43.57990016 -31.00390625 45.8671875 C-31.20380852 48.71258892 -31.28367601 51.45856534 -31.26953125 54.3046875 C-31.2714447 55.14056396 -31.27335815 55.97644043 -31.27532959 56.83764648 C-31.27669161 58.60628561 -31.27299401 60.37493473 -31.26464844 62.14355469 C-31.253949 64.85634744 -31.26454301 67.56847794 -31.27734375 70.28125 C-31.27602216 71.9973973 -31.27345977 73.71354419 -31.26953125 75.4296875 C-31.27357971 76.24429443 -31.27762817 77.05890137 -31.28179932 77.89819336 C-31.4295606 82.35426535 -31.4295606 82.35426535 -29.00390625 85.8671875 C-26.70933702 86.16127882 -26.70933702 86.16127882 -24.06640625 86.09765625 C-23.08929688 86.09572266 -22.1121875 86.09378906 -21.10546875 86.09179688 C-19.57019531 86.07342773 -19.57019531 86.07342773 -18.00390625 86.0546875 C-16.46863281 86.0537207 -16.46863281 86.0537207 -14.90234375 86.05273438 C-9.7883577 86.23998813 -9.7883577 86.23998813 -5.00390625 84.8671875 C-5.00390625 71.6671875 -5.00390625 58.4671875 -5.00390625 44.8671875 C-7.29096456 43.72365834 -8.59655387 43.76384311 -11.12890625 43.8046875 C-13.04703125 43.835625 -13.04703125 43.835625 -15.00390625 43.8671875 C-15.00390625 43.2071875 -15.00390625 42.5471875 -15.00390625 41.8671875 C-13.68390625 41.8671875 -12.36390625 41.8671875 -11.00390625 41.8671875 C-11.00390625 40.8771875 -11.00390625 39.8871875 -11.00390625 38.8671875 C-15.29390625 38.8671875 -19.58390625 38.8671875 -24.00390625 38.8671875 Z M2.99609375 42.8671875 C2.33609375 44.1871875 1.67609375 45.5071875 0.99609375 46.8671875 C3.12187282 46.7803599 5.24678956 46.6721924 7.37109375 46.5546875 C8.55445313 46.49667969 9.7378125 46.43867187 10.95703125 46.37890625 C11.95992187 46.21003906 12.9628125 46.04117188 13.99609375 45.8671875 C14.65609375 44.8771875 15.31609375 43.8871875 15.99609375 42.8671875 C11.70609375 42.8671875 7.41609375 42.8671875 2.99609375 42.8671875 Z M-1.00390625 49.8671875 C-0.67390625 50.5271875 -0.34390625 51.1871875 -0.00390625 51.8671875 C1.97609375 51.8671875 3.95609375 51.8671875 5.99609375 51.8671875 C5.99609375 51.2071875 5.99609375 50.5471875 5.99609375 49.8671875 C6.65609375 49.5371875 7.31609375 49.2071875 7.99609375 48.8671875 C4.8838218 48.8671875 2.05457223 49.32345799 -1.00390625 49.8671875 Z M-54.00390625 55.8671875 C-54.70903162 62.91517098 -54.70903162 62.91517098 -51.56640625 68.9921875 C-49.39860477 70.96560583 -49.39860477 70.96560583 -48.00390625 70.8671875 C-47.34664016 64.557433 -49.07605463 60.82529528 -53.00390625 55.8671875 C-53.33390625 55.8671875 -53.66390625 55.8671875 -54.00390625 55.8671875 Z M-64.00390625 63.8671875 C-60.87768999 67.26136515 -58.43849598 69.4734593 -54.00390625 70.8671875 C-54.78765625 70.0834375 -55.57140625 69.2996875 -56.37890625 68.4921875 C-57.92057292 66.95052083 -59.46223958 65.40885417 -61.00390625 63.8671875 C-61.99390625 63.8671875 -62.98390625 63.8671875 -64.00390625 63.8671875 Z M-42.00390625 68.8671875 C-43.48222885 71.82383269 -43.06423408 74.60948487 -43.00390625 77.8671875 C-42.34390625 77.8671875 -41.68390625 77.8671875 -41.00390625 77.8671875 C-41.00390625 74.8971875 -41.00390625 71.9271875 -41.00390625 68.8671875 C-41.33390625 68.8671875 -41.66390625 68.8671875 -42.00390625 68.8671875 Z M-54.00390625 70.8671875 C-54.00390625 71.5271875 -54.00390625 72.1871875 -54.00390625 72.8671875 C-53.34390625 72.5371875 -52.68390625 72.2071875 -52.00390625 71.8671875 C-52.66390625 71.5371875 -53.32390625 71.2071875 -54.00390625 70.8671875 Z M-58.00390625 75.8671875 C-57.67390625 76.8571875 -57.34390625 77.8471875 -57.00390625 78.8671875 C-51.06390625 79.8571875 -51.06390625 79.8571875 -45.00390625 80.8671875 C-45.68772686 77.87578959 -45.68772686 77.87578959 -47.56640625 76.6796875 C-51.11513008 75.49677956 -54.27092246 75.74275471 -58.00390625 75.8671875 Z M-49.00390625 82.8671875 C-48.67390625 83.5271875 -48.34390625 84.1871875 -48.00390625 84.8671875 C-47.01390625 84.5371875 -46.02390625 84.2071875 -45.00390625 83.8671875 C-46.32390625 83.5371875 -47.64390625 83.2071875 -49.00390625 82.8671875 Z " fill="#363F40" transform="translate(141.00390625,14.1328125)"/>
<path d="M0 0 C0.33 3.3 0.66 6.6 1 10 C1.66 9.01 2.32 8.02 3 7 C4.87939453 6.65942383 4.87939453 6.65942383 7.1328125 6.70703125 C7.93847656 6.71669922 8.74414062 6.72636719 9.57421875 6.73632812 C10.41597656 6.76146484 11.25773437 6.78660156 12.125 6.8125 C12.97449219 6.82603516 13.82398437 6.83957031 14.69921875 6.85351562 C16.79974837 6.88891781 18.89995293 6.94272599 21 7 C21.33 8.98 21.66 10.96 22 13 C22.66 11.02 23.32 9.04 24 7 C26.475 7.495 26.475 7.495 29 8 C29.495 10.475 29.495 10.475 30 13 C30.66 13 31.32 13 32 13 C32 11.02 32 9.04 32 7 C34.31 7 36.62 7 39 7 C39.33 6.01 39.66 5.02 40 4 C43.9402692 0.8709627 47.0454493 0.45950356 52 1 C54.4375 2.3125 54.4375 2.3125 56 4 C56 4.99 56 5.98 56 7 C54.68 7 53.36 7 52 7 C51.505 6.01 51.505 6.01 51 5 C48.58354218 4.83312552 48.58354218 4.83312552 46 5 C43.58516344 6.99837319 43.58516344 6.99837319 43.5625 10.9375 C43.54456194 13.06318102 43.54456194 13.06318102 44 15 C46.83653151 17.45321644 48.25123496 18 52 18 C52 17.34 52 16.68 52 16 C52.9590625 15.7215625 52.9590625 15.7215625 53.9375 15.4375 C56.42126213 14.05753944 56.42126213 14.05753944 56.75 10.375 C56.8325 9.26125 56.915 8.1475 57 7 C58.64574566 6.97311849 60.29161413 6.95365877 61.9375 6.9375 C62.85402344 6.92589844 63.77054687 6.91429688 64.71484375 6.90234375 C67 7 67 7 68 8 C68.07205511 9.68608966 68.08386068 11.37500659 68.0625 13.0625 C68.05347656 13.98160156 68.04445313 14.90070313 68.03515625 15.84765625 C68.02355469 16.55792969 68.01195312 17.26820313 68 18 C68.66 18 69.32 18 70 18 C69.505 12.555 69.505 12.555 69 7 C72.96 7 76.92 7 81 7 C81.33 5.35 81.66 3.7 82 2 C82.99 2.33 83.98 2.66 85 3 C85 4.32 85 5.64 85 7 C85.66 7 86.32 7 87 7 C87 7.66 87 8.32 87 9 C86.34 9 85.68 9 85 9 C85 11.97 85 14.94 85 18 C86.32 18 87.64 18 89 18 C88.505 19.485 88.505 19.485 88 21 C86.00045254 21.04254356 83.99958364 21.04080783 82 21 C81 20 81 20 80.90234375 17.93359375 C80.91394531 17.10988281 80.92554688 16.28617188 80.9375 15.4375 C80.94652344 14.61121094 80.95554687 13.78492188 80.96484375 12.93359375 C80.97644531 12.29550781 80.98804688 11.65742187 81 11 C79.02 11 77.04 11 75 11 C75 12.093125 75 13.18625 75 14.3125 C75 16.54166667 75 18.77083333 75 21 C72.24993392 21.0270203 69.50013454 21.04684883 66.75 21.0625 C65.97269531 21.07087891 65.19539063 21.07925781 64.39453125 21.08789062 C63.26337891 21.09272461 63.26337891 21.09272461 62.109375 21.09765625 C61.07248535 21.10551147 61.07248535 21.10551147 60.01464844 21.11352539 C58 21 58 21 55.80566406 20.43139648 C54.91186035 20.21785522 54.91186035 20.21785522 54 20 C53.505 20.495 53.505 20.495 53 21 C48.54779707 21.56112475 44.99557448 21.48762832 40.9375 19.5 C38.12809758 15.87496462 38.62453035 13.50563575 39 9 C36.39954125 11.3024119 35.15260817 13.49896677 33.8125 16.6875 C33.46832031 17.49574219 33.12414062 18.30398437 32.76953125 19.13671875 C32.38861328 20.05904297 32.38861328 20.05904297 32 21 C30.68 20.67 29.36 20.34 28 20 C27.505 17.03 27.505 17.03 27 14 C26.34 14 25.68 14 25 14 C24.34 16.31 23.68 18.62 23 21 C21.1875 20.9375 21.1875 20.9375 19 20 C17.25 16.4375 17.25 16.4375 16 13 C15.731875 13.94875 15.46375 14.8975 15.1875 15.875 C14 19 14 19 11 21 C4.67741935 21.4516129 4.67741935 21.4516129 1 19 C1 19.66 1 20.32 1 21 C-1.31 21 -3.62 21 -6 21 C-5.505 19.515 -5.505 19.515 -5 18 C-4.77281504 15.43365139 -4.58391816 12.88321893 -4.4375 10.3125 C-4.39431641 9.61060547 -4.35113281 8.90871094 -4.30664062 8.18554688 C-4.2008264 6.45724794 -4.09993419 4.7286489 -4 3 C-4.66 3 -5.32 3 -6 3 C-6 2.34 -6 1.68 -6 1 C-4 0 -4 0 0 0 Z M7 9 C6.34 9.66 5.68 10.32 5 11 C5.32326553 14.59679066 5.32326553 14.59679066 6 18 C6.99 18.33 7.98 18.66 9 19 C11.1519437 15.77208445 11.20086443 14.71599191 11 11 C9.68 10.34 8.36 9.68 7 9 Z M61 9 C60.67 10.32 60.34 11.64 60 13 C61.32 12.67 62.64 12.34 64 12 C63.67 11.01 63.34 10.02 63 9 C62.34 9 61.68 9 61 9 Z M61 15 C60.67 15.99 60.34 16.98 60 18 C60.99 18 61.98 18 63 18 C63.33 17.01 63.66 16.02 64 15 C63.01 15 62.02 15 61 15 Z " fill="#344545" transform="translate(90,116)"/>
<path d="M0 0 C1.32 0.33 2.64 0.66 4 1 C4 3.64 4 6.28 4 9 C4.66 9 5.32 9 6 9 C6.86809439 14.20173095 7.12515348 19.16978816 7.0625 24.4375 C7.05798828 25.16904297 7.05347656 25.90058594 7.04882812 26.65429688 C7.03718148 28.43623419 7.01925191 30.21812863 7 32 C6.01 32 5.02 32 4 32 C3.8453125 32.928125 3.8453125 32.928125 3.6875 33.875 C3 36 3 36 0 38 C-4.06153846 31.6 -4.06153846 31.6 -3.75 28.5625 C-3.5025 28.046875 -3.255 27.53125 -3 27 C-3.66 27 -4.32 27 -5 27 C-5.22226864 25.23086176 -5.42733873 23.45955629 -5.625 21.6875 C-5.74101563 20.70136719 -5.85703125 19.71523437 -5.9765625 18.69921875 C-6 16 -6 16 -4 13 C-3.34 13 -2.68 13 -2 13 C-2.02320312 12.31292969 -2.04640625 11.62585938 -2.0703125 10.91796875 C-2.08835937 10.01691406 -2.10640625 9.11585937 -2.125 8.1875 C-2.14820312 7.29417969 -2.17140625 6.40085937 -2.1953125 5.48046875 C-2 3 -2 3 0 0 Z M1 23 C-0.4783226 25.95664519 -0.06032783 28.74229737 0 32 C0.66 32 1.32 32 2 32 C2 29.03 2 26.06 2 23 C1.67 23 1.34 23 1 23 Z " fill="#353F40" transform="translate(98,60)"/>
<path d="M0 0 C0.33 0 0.66 0 1 0 C1 11.55 1 23.1 1 35 C0.34 35 -0.32 35 -1 35 C-1.66 36.32 -2.32 37.64 -3 39 C-4.95216435 37.04783565 -5.84826645 35.46800047 -7 33 C-7.05447047 34.41623216 -7.09300508 35.83308191 -7.125 37.25 C-7.14820312 38.03890625 -7.17140625 38.8278125 -7.1953125 39.640625 C-6.97767636 42.26966951 -6.46290812 43.81048189 -5 46 C-4.01 46.33 -3.02 46.66 -2 47 C-2 47.66 -2 48.32 -2 49 C-1.34 49 -0.68 49 0 49 C-0.33 50.65 -0.66 52.3 -1 54 C-1.99 53.34 -2.98 52.68 -4 52 C-3.34 52 -2.68 52 -2 52 C-2.33 50.68 -2.66 49.36 -3 48 C-4.485 48.495 -4.485 48.495 -6 49 C-6.59167969 48.43410156 -7.18335937 47.86820313 -7.79296875 47.28515625 C-8.97826172 46.18494141 -8.97826172 46.18494141 -10.1875 45.0625 C-10.96480469 44.33160156 -11.74210937 43.60070312 -12.54296875 42.84765625 C-15.13122646 40.90131937 -16.81859299 40.35600114 -20 40 C-19.01 39.505 -19.01 39.505 -18 39 C-18 38.34 -18 37.68 -18 37 C-16.68 37 -15.36 37 -14 37 C-14 37.66 -14 38.32 -14 39 C-13.34 39 -12.68 39 -12 39 C-11.67 35.7 -11.34 32.4 -11 29 C-9.35 28.67 -7.7 28.34 -6 28 C-5.67 28.99 -5.34 29.98 -5 31 C-3.35 30.67 -1.7 30.34 0 30 C0 20.1 0 10.2 0 0 Z " fill="#243030" transform="translate(95,38)"/>
<path d="M0 0 C2.4375 1.3125 2.4375 1.3125 4 3 C4 3.99 4 4.98 4 6 C1.525 5.505 1.525 5.505 -1 5 C-1 4.34 -1 3.68 -1 3 C-5.82442184 4.26946514 -5.82442184 4.26946514 -9 8 C-9.07905064 10.33199388 -9.08798769 12.66832622 -9 15 C-8.34 15 -7.68 15 -7 15 C-7 15.66 -7 16.32 -7 17 C-5.02 16.67 -3.04 16.34 -1 16 C-0.67 15.01 -0.34 14.02 0 13 C-0.66 13 -1.32 13 -2 13 C-2 12.34 -2 11.68 -2 11 C0.64 11 3.28 11 6 11 C5.7452486 12.31571603 5.47065859 13.62760376 5.1875 14.9375 C5.03667969 15.66839844 4.88585937 16.39929688 4.73046875 17.15234375 C4.48941406 17.76207031 4.24835938 18.37179688 4 19 C-1.16207157 20.72069052 -6.04631241 20.93614197 -11 18.5625 C-13.79035623 14.98735608 -14.3086746 11.49556849 -14 7 C-13.00390625 4.71875 -13.00390625 4.71875 -12 3 C-11.34 3 -10.68 3 -10 3 C-10 2.34 -10 1.68 -10 1 C-6.43528609 -0.18823797 -3.7441664 -0.26274852 0 0 Z " fill="#343F3F" transform="translate(79,117)"/>
<path d="M0 0 C4.38421273 0.15913658 7.5443811 0.92119377 11.3125 3.3125 C13.39081974 6.65988224 15.3125 10.30939332 15.3125 14.3125 C9.90530411 15.23287377 4.79927955 15.39691199 -0.6875 15.3125 C-0.6875 19.9325 -0.6875 24.5525 -0.6875 29.3125 C-1.0175 29.3125 -1.3475 29.3125 -1.6875 29.3125 C-1.74808594 28.61382812 -1.80867188 27.91515625 -1.87109375 27.1953125 C-1.95488281 26.28523438 -2.03867188 25.37515625 -2.125 24.4375 C-2.24681641 23.08011719 -2.24681641 23.08011719 -2.37109375 21.6953125 C-2.55739285 19.30139139 -2.55739285 19.30139139 -3.6875 17.3125 C-3.89181595 15.52473541 -4.05280323 13.73185337 -4.1875 11.9375 C-4.48085209 7.96070411 -4.48085209 7.96070411 -5.34375 4.0859375 C-5.4571875 3.50070313 -5.570625 2.91546875 -5.6875 2.3125 C-3.6875 0.3125 -3.6875 0.3125 0 0 Z M-2.6875 3.3125 C-1.6975 6.2825 -0.7075 9.2525 0.3125 12.3125 C3.9425 12.3125 7.5725 12.3125 11.3125 12.3125 C10.4638572 8.84077945 9.87610689 6.79559162 7.125 4.4375 C3.70345112 3.06888045 0.9649546 3.09764973 -2.6875 3.3125 Z " fill="#333B3D" transform="translate(117.6875,20.6875)"/>
<path d="M0 0 C0.99 0 1.98 0 3 0 C3.2757817 2.43707088 3.52131492 4.87095049 3.75 7.3125 C3.87181641 8.34793945 3.87181641 8.34793945 3.99609375 9.40429688 C4.4350142 14.4518821 4.4350142 14.4518821 2.4375 16.96875 C-0.76103056 18.32197447 -3.28751523 18.29137454 -6.75 18.1875 C-7.92046875 18.16042969 -9.0909375 18.13335937 -10.296875 18.10546875 C-11.18890625 18.07066406 -12.0809375 18.03585938 -13 18 C-13 19.65 -13 21.3 -13 23 C-14.32 23 -15.64 23 -17 23 C-16.67 16.4 -16.34 9.8 -16 3 C-14 5 -14 5 -13.8046875 7.3828125 C-13.86979167 9.921875 -13.93489583 12.4609375 -14 15 C-9.71 15 -5.42 15 -1 15 C-1.01160156 14.00097656 -1.02320313 13.00195312 -1.03515625 11.97265625 C-1.04417969 10.68230469 -1.05320313 9.39195313 -1.0625 8.0625 C-1.07410156 6.77472656 -1.08570313 5.48695312 -1.09765625 4.16015625 C-1 1 -1 1 0 0 Z " fill="#3E4446" transform="translate(130,35)"/>
<path d="M0 0 C0.99 0.66 1.98 1.32 3 2 C2.7834375 3.03060547 2.7834375 3.03060547 2.5625 4.08203125 C2.376875 4.98308594 2.19125 5.88414063 2 6.8125 C1.814375 7.70582031 1.62875 8.59914063 1.4375 9.51953125 C0.91315157 12.07260693 0.91315157 12.07260693 1 15 C0.93112733 17.94155885 0.85806351 20.88286623 0.78125 23.82421875 C0.74795593 25.11632011 0.74795593 25.11632011 0.71398926 26.43452454 C0.64302022 29.18552582 0.57151654 31.9365129 0.5 34.6875 C0.4517877 36.55273347 0.40361019 38.41796783 0.35546875 40.28320312 C0.23738281 44.85547929 0.11881738 49.42774279 0 54 C-0.33 54 -0.66 54 -1 54 C-1 41.13 -1 28.26 -1 15 C-4.3 14.67 -7.6 14.34 -11 14 C-11 13.34 -11 12.68 -11 12 C-9.68 12 -8.36 12 -7 12 C-7 10.68 -7 9.36 -7 8 C-6.01 7.34 -5.02 6.68 -4 6 C-3.74969023 3.41619823 -3.74969023 3.41619823 -4 1 C-3.67 1.66 -3.34 2.32 -3 3 C-2.34 3 -1.68 3 -1 3 C-0.67 2.01 -0.34 1.02 0 0 Z " fill="#1F2122" transform="translate(137,44)"/>
<path d="M0 0 C0.33 0 0.66 0 1 0 C1.50423019 5.29441695 0.18923033 7.81413519 -3 12 C-1.58845234 15.41124018 0.06221223 16.8456223 3 19 C3 19.66 3 20.32 3 21 C3.99 21 4.98 21 6 21 C5.67 22.32 5.34 23.64 5 25 C1.03059397 22.97638124 -1.85753604 21.4792296 -4.4375 17.8125 C-7.13998694 14.8463558 -7.58728917 14.57594657 -11.3125 14.125 C-12.529375 14.08375 -13.74625 14.0425 -15 14 C-12 12 -12 12 -9 11.1875 C-5.36914304 9.75028579 -4.83517335 8.32078987 -3 5 C-2.01 5 -1.02 5 0 5 C0 3.35 0 1.7 0 0 Z " fill="#2F3A3B" transform="translate(105,87)"/>
<path d="M0 0 C0.66 0.33 1.32 0.66 2 1 C1.51104248 1.63897217 1.02208496 2.27794434 0.51831055 2.9362793 C-1.53094305 7.07136266 -1.37809967 10.47115928 -1.29296875 15.01953125 C-1.28872391 15.87810226 -1.28447906 16.73667328 -1.28010559 17.6212616 C-1.26336995 20.35199914 -1.22572766 23.08198712 -1.1875 25.8125 C-1.17244653 27.6686091 -1.15875928 29.52472982 -1.14648438 31.38085938 C-1.11348323 35.92085985 -1.06173659 40.46030302 -1 45 C-2.485 45.495 -2.485 45.495 -4 46 C-4.09878601 39.93111949 -4.17142949 33.86270561 -4.21972656 27.79321289 C-4.23985731 25.72802582 -4.26716445 23.66289584 -4.30175781 21.59790039 C-4.35021162 18.63152999 -4.37295385 15.66591228 -4.390625 12.69921875 C-4.41127014 11.7741301 -4.43191528 10.84904144 -4.45318604 9.8959198 C-4.45544041 3.47384038 -4.45544041 3.47384038 -1.97558594 0.89379883 C-1.32364258 0.59884521 -0.67169922 0.3038916 0 0 Z " fill="#2F393B" transform="translate(112,54)"/>
<path d="M0 0 C1.32 0.33 2.64 0.66 4 1 C4 3.31 4 5.62 4 8 C2.68 8.33 1.36 8.66 0 9 C0 13.29 0 17.58 0 22 C-0.99 22 -1.98 22 -3 22 C-4.4606285 19.35261084 -5 18.10551666 -5 15 C-4.67 14.34 -4.34 13.68 -4 13 C-3.34 13 -2.68 13 -2 13 C-2.02320312 12.31292969 -2.04640625 11.62585938 -2.0703125 10.91796875 C-2.08835937 10.01691406 -2.10640625 9.11585937 -2.125 8.1875 C-2.14820312 7.29417969 -2.17140625 6.40085937 -2.1953125 5.48046875 C-2 3 -2 3 0 0 Z " fill="#363F3F" transform="translate(98,60)"/>
<path d="M0 0 C-0.33 0.99 -0.66 1.98 -1 3 C-4.07964087 3.98773847 -7.12066577 4.6948781 -10.27734375 5.37304688 C-14.80984881 6.43716152 -17.50126713 7.98772197 -21 11 C-23.8125 11.25 -23.8125 11.25 -26 11 C-19.6428856 2.28839878 -10.47794896 -0.57152449 0 0 Z " fill="#384242" transform="translate(126,9)"/>
<path d="M0 0 C4.41848919 0.03190245 7.4507151 1.28785755 11.375 3.25 C11.045 4.9 10.715 6.55 10.375 8.25 C9.50875 7.59 8.6425 6.93 7.75 6.25 C4.16076537 4.12304615 2.44805202 3.86209028 -1.625 4.25 C-1.295 6.23 -0.965 8.21 -0.625 10.25 C-1.615 10.25 -2.605 10.25 -3.625 10.25 C-5.70707071 5.84090909 -5.70707071 5.84090909 -5.3125 3 C-4.05823214 -0.19268183 -3.79245169 0.26154839 0 0 Z " fill="#393E3D" transform="translate(117.625,20.75)"/>
<path d="M0 0 C5 1 5 1 8 3 C7.01 3.495 7.01 3.495 6 4 C6 5.093125 6 6.18625 6 7.3125 C6 9.54166667 6 11.77083333 6 14 C3.69 14 1.38 14 -1 14 C-1 13.01 -1 12.02 -1 11 C-0.34 11 0.32 11 1 11 C0.67 7.37 0.34 3.74 0 0 Z " fill="#2B3C3D" transform="translate(159,123)"/>
<path d="M0 0 C7.92 0 15.84 0 24 0 C24 0.99 24 1.98 24 3 C16.41 3 8.82 3 1 3 C0.67 2.01 0.34 1.02 0 0 Z " fill="#3C3E3F" transform="translate(111,82)"/>
<path d="M0 0 C7.92 0 15.84 0 24 0 C24 0.99 24 1.98 24 3 C16.41 3 8.82 3 1 3 C0.67 2.01 0.34 1.02 0 0 Z " fill="#3A4145" transform="translate(111,77)"/>
<path d="M0 0 C3.71368887 1.23789629 4.77354181 2.85224877 7 6 C7 6.66 7 7.32 7 8 C6.01 8.33 5.02 8.66 4 9 C3.01 10.485 3.01 10.485 2 12 C0 12 0 12 -2.125 10.1875 C-4 8 -4 8 -4 5 C-3.01 4.34 -2.02 3.68 -1 3 C-0.67 2.01 -0.34 1.02 0 0 Z " fill="#383B3B" transform="translate(160,69)"/>
<path d="M0 0 C1.32 0.33 2.64 0.66 4 1 C4 1.66 4 2.32 4 3 C4.99 3 5.98 3 7 3 C7 6 7 6 5 8.1875 C4.01 9.0846875 4.01 9.0846875 3 10 C0.50638429 8.79618552 -1.68143083 7.54571278 -4 6 C-4 5.01 -4 4.02 -4 3 C-3.01 2.67 -2.02 2.34 -1 2 C-0.67 1.34 -0.34 0.68 0 0 Z " fill="#373F3D" transform="translate(104,42)"/>
<path d="M0 0 C2.4375 1.3125 2.4375 1.3125 4 3 C4 3.99 4 4.98 4 6 C2.68 6 1.36 6 0 6 C-0.33 5.34 -0.66 4.68 -1 4 C-3.33165034 3.66501699 -3.33165034 3.66501699 -6 4 C-8.31377147 5.89584109 -8.31377147 5.89584109 -10 8 C-10.66 6.35 -11.32 4.7 -12 3 C-7.90914193 0.0248305 -5.02638169 -0.54833255 0 0 Z " fill="#414B4D" transform="translate(142,117)"/>
<path d="M0 0 C0.99 0.33 1.98 0.66 3 1 C5.73289293 1.22797562 8.45042204 1.41668187 11.1875 1.5625 C11.93708984 1.60568359 12.68667969 1.64886719 13.45898438 1.69335938 C15.30578375 1.79922685 17.15286834 1.9000976 19 2 C19 2.99 19 3.98 19 5 C16.39555652 5.05394705 13.79223002 5.09364469 11.1875 5.125 C10.44951172 5.14175781 9.71152344 5.15851563 8.95117188 5.17578125 C5.08753574 5.21074628 3.29096332 5.19397555 0 3 C0 2.01 0 1.02 0 0 Z " fill="#3C4240" transform="translate(111,109)"/>
<path d="M0 0 C0.66 0.99 1.32 1.98 2 3 C1.34 3 0.68 3 0 3 C-0.061875 3.721875 -0.12375 4.44375 -0.1875 5.1875 C-1.2553751 8.88399074 -3.10819816 10.53138868 -6 13 C-6.66 13 -7.32 13 -8 13 C-8.33 12.01 -8.66 11.02 -9 10 C-8.34 10 -7.68 10 -7 10 C-6.67 9.01 -6.34 8.02 -6 7 C-6.66 6.34 -7.32 5.68 -8 5 C-6.35 4.67 -4.7 4.34 -3 4 C-3 3.01 -3 2.02 -3 1 C-2.01 0.67 -1.02 0.34 0 0 Z " fill="#313A3A" transform="translate(162,51)"/>
<path d="M0 0 C0.33 0 0.66 0 1 0 C1 4.62 1 9.24 1 14 C0.34 13.01 -0.32 12.02 -1 11 C-1.99 11 -2.98 11 -4 11 C-4.33 12.32 -4.66 13.64 -5 15 C-5.66 14.67 -6.32 14.34 -7 14 C-7 13.01 -7 12.02 -7 11 C-8.32 10.67 -9.64 10.34 -11 10 C-11 9.34 -11 8.68 -11 8 C-6.25 8.875 -6.25 8.875 -4 10 C-4 9.34 -4 8.68 -4 8 C-2.68 8 -1.36 8 0 8 C0 5.36 0 2.72 0 0 Z " fill="#302B2C" transform="translate(151,69)"/>
<path d="M0 0 C0.928125 0.495 1.85625 0.99 2.8125 1.5 C5.86527516 3.21289852 5.86527516 3.21289852 9 3 C9 2.34 9 1.68 9 1 C9.66 1 10.32 1 11 1 C11 1.66 11 2.32 11 3 C11.66 3.33 12.32 3.66 13 4 C9.00706063 6.66195958 5.69736163 6.72919332 1 6 C-1.5625 4 -1.5625 4 -3 2 C-2.01 1.34 -1.02 0.68 0 0 Z " fill="#353C3B" transform="translate(133,131)"/>
<path d="M0 0 C8.25 0.66 16.5 1.32 25 2 C25 2.33 25 2.66 25 3 C16.75 3 8.5 3 0 3 C0 2.01 0 1.02 0 0 Z " fill="#463C3D" transform="translate(109,99)"/>
<path d="M0 0 C1.64869666 2.96765398 2.56734434 5.62528585 3 9 C2.67 9.99 2.34 10.98 2 12 C-0.31 12 -2.62 12 -5 12 C-5 11.34 -5 10.68 -5 10 C-4.01 10 -3.02 10 -2 10 C-2 7.69 -2 5.38 -2 3 C-1.34 3 -0.68 3 0 3 C0 2.01 0 1.02 0 0 Z " fill="#2B3A39" transform="translate(89,125)"/>
<path d="M0 0 C1.14662109 0.11601562 1.14662109 0.11601562 2.31640625 0.234375 C1.36173061 1.86152656 0.40253777 3.48602846 -0.55859375 5.109375 C-1.09226562 6.01429687 -1.6259375 6.91921875 -2.17578125 7.8515625 C-3.68359375 10.234375 -3.68359375 10.234375 -5.68359375 12.234375 C-6.8125 10.5 -6.8125 10.5 -7.68359375 8.234375 C-6.9609375 6.09375 -6.9609375 6.09375 -5.62109375 3.984375 C-5.19699219 3.27796875 -4.77289063 2.5715625 -4.3359375 1.84375 C-2.68359375 0.234375 -2.68359375 0.234375 0 0 Z " fill="#2D3533" transform="translate(101.68359375,19.765625)"/>
<path d="M0 0 C0.66 0 1.32 0 2 0 C1.54554036 1.41791408 1.08625056 2.83428046 0.625 4.25 C0.36976562 5.03890625 0.11453125 5.8278125 -0.1484375 6.640625 C-0.95173667 8.86627958 -1.89711662 10.90931672 -3 13 C-4.32 12.67 -5.64 12.34 -7 12 C-6.01 11.34 -5.02 10.68 -4 10 C-4.33 8.35 -4.66 6.7 -5 5 C-4.34 5 -3.68 5 -3 5 C-2.67 4.01 -2.34 3.02 -2 2 C-1.34 2 -0.68 2 0 2 C0 1.34 0 0.68 0 0 Z " fill="#363636" transform="translate(125,124)"/>
<path d="M0 0 C0.33 2.31 0.66 4.62 1 7 C-0.98 6.34 -2.96 5.68 -5 5 C-5.33 5.66 -5.66 6.32 -6 7 C-6 4.69 -6 2.38 -6 0 C-3.50907189 -1.24546405 -2.58919267 -0.7767578 0 0 Z " fill="#2B2E2F" transform="translate(104,69)"/>
<path d="M0 0 C6.32258065 -0.36476427 6.32258065 -0.36476427 9.4375 1.3125 C11 3 11 3 11 6 C9.35 5.67 7.7 5.34 6 5 C6 4.34 6 3.68 6 3 C4.02 3.33 2.04 3.66 0 4 C0 2.68 0 1.36 0 0 Z " fill="#354646" transform="translate(72,117)"/>
<path d="M0 0 C0.99 0.33 1.98 0.66 3 1 C3 1.66 3 2.32 3 3 C4.65 2.67 6.3 2.34 8 2 C8.33 3.32 8.66 4.64 9 6 C5.7 6 2.4 6 -1 6 C-0.67 4.02 -0.34 2.04 0 0 Z " fill="#334041" transform="translate(84,84)"/>
<path d="M0 0 C0.33 0.66 0.66 1.32 1 2 C1.66 2 2.32 2 3 2 C3 2.66 3 3.32 3 4 C2.01 4 1.02 4 0 4 C0 4.66 0 5.32 0 6 C1.65 6 3.3 6 5 6 C4.01 6.33 3.02 6.66 2 7 C2 11.62 2 16.24 2 21 C1.67 21 1.34 21 1 21 C0.93941406 20.30132812 0.87882812 19.60265625 0.81640625 18.8828125 C0.73261719 17.97273438 0.64882812 17.06265625 0.5625 16.125 C0.48128906 15.22007813 0.40007812 14.31515625 0.31640625 13.3828125 C0.13010715 10.98889139 0.13010715 10.98889139 -1 9 C-1.23333333 2.46666667 -1.23333333 2.46666667 0 0 Z " fill="#1D2121" transform="translate(115,29)"/>
<path d="M0 0 C0.33 1.32 0.66 2.64 1 4 C-1.61194353 6.50746579 -2.94541478 6.99435325 -6.625 7.375 C-7.73875 7.25125 -8.8525 7.1275 -10 7 C-10.66 6.01 -11.32 5.02 -12 4 C-9.69 4.33 -7.38 4.66 -5 5 C-5 4.34 -5 3.68 -5 3 C-3.35 2.67 -1.7 2.34 0 2 C0 1.34 0 0.68 0 0 Z " fill="#2E3737" transform="translate(104,130)"/>
<path d="M0 0 C2 1 2 1 4 6 C0.37 6 -3.26 6 -7 6 C-7 5.34 -7 4.68 -7 4 C-5.35 4 -3.7 4 -2 4 C-1.34 2.68 -0.68 1.36 0 0 Z " fill="#3A4749" transform="translate(133,52)"/>
<path d="M0 0 C0.66 0 1.32 0 2 0 C3.28317892 3.84953676 3.06643637 6.94738135 3 11 C2.01 11 1.02 11 0 11 C-0.19406478 9.35492782 -0.38007935 7.70890406 -0.5625 6.0625 C-0.66691406 5.14597656 -0.77132812 4.22945312 -0.87890625 3.28515625 C-0.91886719 2.53105469 -0.95882812 1.77695312 -1 1 C-0.67 0.67 -0.34 0.34 0 0 Z " fill="#393F40" transform="translate(142,23)"/>
<path d="M0 0 C0.99 0 1.98 0 3 0 C3 0.99 3 1.98 3 3 C3.99 2.67 4.98 2.34 6 2 C6.33 2.99 6.66 3.98 7 5 C5.02 5 3.04 5 1 5 C0.34 6.32 -0.32 7.64 -1 9 C-1.66 8.67 -2.32 8.34 -3 8 C-2.5359375 7.13375 -2.5359375 7.13375 -2.0625 6.25 C-1.07416636 4.15705816 -0.4831387 2.25464725 0 0 Z " fill="#3F4B4C" transform="translate(147,126)"/>
<path d="M0 0 C1.33333333 0.66666667 2.66666667 1.33333333 4 2 C4 4.31 4 6.62 4 9 C3.01 9 2.02 9 1 9 C-0.4606285 6.35261084 -1 5.10551666 -1 2 C-0.67 1.34 -0.34 0.68 0 0 Z " fill="#3A4B4C" transform="translate(94,73)"/>
<path d="M0 0 C-1.35468295 4.87685861 -3.71675909 6.48592381 -8 9 C-7.71848913 7.68528432 -7.42446661 6.37324233 -7.125 5.0625 C-6.96257812 4.33160156 -6.80015625 3.60070313 -6.6328125 2.84765625 C-5.44155277 -0.63052802 -3.53275237 0 0 0 Z " fill="#304445" transform="translate(174,42)"/>
<path d="M0 0 C1.65 0.33 3.3 0.66 5 1 C5 2.32 5 3.64 5 5 C1.25 6.125 1.25 6.125 -1 5 C-0.67 3.35 -0.34 1.7 0 0 Z " fill="#353D3E" transform="translate(94,103)"/>
<path d="M0 0 C0.721875 0.268125 1.44375 0.53625 2.1875 0.8125 C-0.30202921 3.47985273 -2.44658134 5.36996343 -5.8125 6.8125 C-6.4725 6.1525 -7.1325 5.4925 -7.8125 4.8125 C-3.50480769 -0.23365385 -3.50480769 -0.23365385 0 0 Z " fill="#2C3638" transform="translate(154.8125,46.1875)"/>
<path d="M0 0 C1.32 0.33 2.64 0.66 4 1 C3.67 1.99 3.34 2.98 3 4 C2.34 4 1.68 4 1 4 C0.67 4.99 0.34 5.98 0 7 C-0.99 7 -1.98 7 -3 7 C-2.67 5.68 -2.34 4.36 -2 3 C-1.34 3 -0.68 3 0 3 C0 2.01 0 1.02 0 0 Z " fill="#352F30" transform="translate(75,60)"/>
<path d="M0 0 C0.99 0.66 1.98 1.32 3 2 C2.67 4.97 2.34 7.94 2 11 C1.67 10.34 1.34 9.68 1 9 C0.01 8.67 -0.98 8.34 -2 8 C-1.34 5.36 -0.68 2.72 0 0 Z " fill="#313436" transform="translate(155,33)"/>
<path d="M0 0 C0.99 0.66 1.98 1.32 3 2 C3 2.66 3 3.32 3 4 C2.01 4.33 1.02 4.66 0 5 C-0.99 6.485 -0.99 6.485 -2 8 C-2.66 8 -3.32 8 -4 8 C-3.67 6.35 -3.34 4.7 -3 3 C-2.01 2.67 -1.02 2.34 0 2 C0 1.34 0 0.68 0 0 Z " fill="#3A4442" transform="translate(164,73)"/>
<path d="M0 0 C2.125 0.375 2.125 0.375 4 1 C4 2.32 4 3.64 4 5 C2.68 5.33 1.36 5.66 0 6 C-0.66 4.68 -1.32 3.36 -2 2 C-1.34 1.34 -0.68 0.68 0 0 Z " fill="#354040" transform="translate(86,41)"/>
<path d="M0 0 C1.98 0 3.96 0 6 0 C5.67 1.65 5.34 3.3 5 5 C3.68 4.67 2.36 4.34 1 4 C0.67 2.68 0.34 1.36 0 0 Z " fill="#323D3D" transform="translate(159,33)"/>
<path d="M0 0 C2 2 2 2 2.125 5.625 C2.08375 6.73875 2.0425 7.8525 2 9 C1.01 9.33 0.02 9.66 -1 10 C-1.02689216 8.52093108 -1.04634621 7.04172517 -1.0625 5.5625 C-1.07410156 4.73878906 -1.08570312 3.91507813 -1.09765625 3.06640625 C-1 1 -1 1 0 0 Z " fill="#3C4443" transform="translate(94,29)"/>
<path d="M0 0 C1.4540625 0.0309375 1.4540625 0.0309375 2.9375 0.0625 C2.6075 1.3825 2.2775 2.7025 1.9375 4.0625 C-0.3725 4.3925 -2.6825 4.7225 -5.0625 5.0625 C-3.9375 0.08035714 -3.9375 0.08035714 0 0 Z " fill="#353739" transform="translate(144.0625,59.9375)"/>
<path d="M0 0 C4.75 0.75 4.75 0.75 7 3 C6.625 5.125 6.625 5.125 6 7 C5.34 6.67 4.68 6.34 4 6 C4 5.01 4 4.02 4 3 C2.68 2.67 1.36 2.34 0 2 C0 1.34 0 0.68 0 0 Z " fill="#393635" transform="translate(140,77)"/>
<path d="M0 0 C1.32 0 2.64 0 4 0 C4 0.66 4 1.32 4 2 C4.99 2.33 5.98 2.66 7 3 C7 3.99 7 4.98 7 6 C4.03 5.01 1.06 4.02 -2 3 C-1.34 2.67 -0.68 2.34 0 2 C0 1.34 0 0.68 0 0 Z " fill="#2B3334" transform="translate(77,75)"/>
<path d="M0 0 C0.598125 0.165 1.19625 0.33 1.8125 0.5 C4.11344336 1.1114124 4.11344336 1.1114124 7 1 C6.34 2.32 5.68 3.64 5 5 C3.35 4.67 1.7 4.34 0 4 C0 2.68 0 1.36 0 0 Z " fill="#3E4A4A" transform="translate(153,42)"/>
<path d="M0 0 C0.99 0.33 1.98 0.66 3 1 C2.67 1.99 2.34 2.98 2 4 C1.34 4 0.68 4 0 4 C-0.33 4.99 -0.66 5.98 -1 7 C-1.99 7 -2.98 7 -4 7 C-4 6.01 -4 5.02 -4 4 C-3.01 4 -2.02 4 -1 4 C-0.67 2.68 -0.34 1.36 0 0 Z " fill="#403234" transform="translate(154,14)"/>
<path d="M0 0 C2.475 0.495 2.475 0.495 5 1 C4.67 2.32 4.34 3.64 4 5 C2.68 5 1.36 5 0 5 C0 3.35 0 1.7 0 0 Z " fill="#373B3C" transform="translate(132,22)"/>
<path d="M0 0 C2.97 0 5.94 0 9 0 C8.67 1.32 8.34 2.64 8 4 C2.25 2.25 2.25 2.25 0 0 Z " fill="#40474C" transform="translate(162,123)"/>
<path d="M0 0 C2.475 0.495 2.475 0.495 5 1 C5.33 2.32 5.66 3.64 6 5 C4.68 5 3.36 5 2 5 C1.34 3.35 0.68 1.7 0 0 Z " fill="#384643" transform="translate(140,118)"/>
<path d="M0 0 C0.99 0.66 1.98 1.32 3 2 C3 3.32 3 4.64 3 6 C-1.875 4.25 -1.875 4.25 -3 2 C-2.01 1.34 -1.02 0.68 0 0 Z " fill="#2B3733" transform="translate(133,131)"/>
<path d="M0 0 C0.33 0 0.66 0 1 0 C1.17942163 3.94727588 1.09350689 6.5980513 -1 10 C-1.99 9.67 -2.98 9.34 -4 9 C-3.67 7.68 -3.34 6.36 -3 5 C-2.01 5 -1.02 5 0 5 C0 3.35 0 1.7 0 0 Z " fill="#1F2A2A" transform="translate(105,87)"/>
<path d="M0 0 C0.66 0 1.32 0 2 0 C2 0.99 2 1.98 2 3 C1.01 3 0.02 3 -1 3 C-1.33 4.32 -1.66 5.64 -2 7 C-2.66 7 -3.32 7 -4 7 C-3.67 5.35 -3.34 3.7 -3 2 C-2.01 2 -1.02 2 0 2 C0 1.34 0 0.68 0 0 Z " fill="#444248" transform="translate(103,89)"/>
<path d="M0 0 C0.66 0 1.32 0 2 0 C2 1.98 2 3.96 2 6 C0.68 5.67 -0.64 5.34 -2 5 C-1.34 3.35 -0.68 1.7 0 0 Z M2 4 C2.66 4 3.32 4 4 4 C3.67 4.66 3.34 5.32 3 6 C2.67 5.34 2.34 4.68 2 4 Z " fill="#394546" transform="translate(101,77)"/>
<path d="M0 0 C0.99 0 1.98 0 3 0 C3 1.98 3 3.96 3 6 C1.68 6 0.36 6 -1 6 C-0.67 4.02 -0.34 2.04 0 0 Z " fill="#3B4241" transform="translate(114,52)"/>
<path d="M0 0 C-0.66 1.65 -1.32 3.3 -2 5 C-3.32 5 -4.64 5 -6 5 C-5.625 3.0625 -5.625 3.0625 -5 1 C-3 0 -3 0 0 0 Z " fill="#383235" transform="translate(145,34)"/>
<path d="M0 0 C0 1.65 0 3.3 0 5 C-0.33 4.34 -0.66 3.68 -1 3 C-3.02463255 2.34786708 -3.02463255 2.34786708 -5 2 C-5 2.66 -5 3.32 -5 4 C-5.99 3.67 -6.98 3.34 -8 3 C-8 2.34 -8 1.68 -8 1 C-1.125 0 -1.125 0 0 0 Z " fill="#474649" transform="translate(130,122)"/>
<path d="M0 0 C-0.33 1.65 -0.66 3.3 -1 5 C-2.32 5.33 -3.64 5.66 -5 6 C-4.625 3.5625 -4.625 3.5625 -4 1 C-2 0 -2 0 0 0 Z " fill="#37464C" transform="translate(105,127)"/>
<path d="M0 0 C2.64 0 5.28 0 8 0 C8 0.66 8 1.32 8 2 C4.94736336 2.98120464 3.05263664 2.98120464 0 2 C0 1.34 0 0.68 0 0 Z " fill="#46484B" transform="translate(97,123)"/>
<path d="M0 0 C1.65 0 3.3 0 5 0 C5 0.99 5 1.98 5 3 C4.34 3.66 3.68 4.32 3 5 C2.01 4.34 1.02 3.68 0 3 C0 2.01 0 1.02 0 0 Z " fill="#283233" transform="translate(156,74)"/>
<path d="M0 0 C0.99 0.66 1.98 1.32 3 2 C2.67 3.32 2.34 4.64 2 6 C-1.875 4.25 -1.875 4.25 -3 2 C-2.01 2 -1.02 2 0 2 C0 1.34 0 0.68 0 0 Z " fill="#292D2C" transform="translate(105,46)"/>
<path d="M0 0 C1.98 0 3.96 0 6 0 C6 0.66 6 1.32 6 2 C5.34 2 4.68 2 4 2 C3.67 2.66 3.34 3.32 3 4 C2.01 3.67 1.02 3.34 0 3 C0 2.01 0 1.02 0 0 Z " fill="#2B3B39" transform="translate(147,123)"/>
<path d="M0 0 C-3.625 3 -3.625 3 -7 3 C-7 2.01 -7 1.02 -7 0 C-4.3333581 -1.33332095 -2.83319697 -0.67102033 0 0 Z " fill="#333635" transform="translate(137,111)"/>
<path d="M0 0 C0.33 0.66 0.66 1.32 1 2 C1.66 2 2.32 2 3 2 C2.34 3.65 1.68 5.3 1 7 C0.34 6.67 -0.32 6.34 -1 6 C-0.67 4.02 -0.34 2.04 0 0 Z " fill="#2F3D34" transform="translate(148,95)"/>
<path d="M0 0 C1.98 0.495 1.98 0.495 4 1 C3.67 1.99 3.34 2.98 3 4 C1.68 3.67 0.36 3.34 -1 3 C-0.67 2.01 -0.34 1.02 0 0 Z " fill="#453333" transform="translate(79,63)"/>
<path d="M0 0 C0.66 0 1.32 0 2 0 C2.33 0.99 2.66 1.98 3 3 C2.67 3.66 2.34 4.32 2 5 C1.01 4.67 0.02 4.34 -1 4 C-0.67 2.68 -0.34 1.36 0 0 Z " fill="#413D3C" transform="translate(76,66)"/>
<path d="M0 0 C0.66 0.33 1.32 0.66 2 1 C2 2.32 2 3.64 2 5 C1.01 5 0.02 5 -1 5 C-0.67 3.35 -0.34 1.7 0 0 Z " fill="#423633" transform="translate(145,72)"/>
<path d="M0 0 C0.99 0.33 1.98 0.66 3 1 C2.67 2.32 2.34 3.64 2 5 C1.34 5 0.68 5 0 5 C0 3.35 0 1.7 0 0 Z " fill="#5A312E" transform="translate(105,25)"/>
<path d="M0 0 C1.65 0 3.3 0 5 0 C4.67 0.99 4.34 1.98 4 3 C2.68 2.67 1.36 2.34 0 2 C0 1.34 0 0.68 0 0 Z " fill="#352B2A" transform="translate(100,30)"/>
<path d="M0 0 C1.32 0 2.64 0 4 0 C4 0.99 4 1.98 4 3 C2.68 3 1.36 3 0 3 C0 2.01 0 1.02 0 0 Z " fill="#463436" transform="translate(153,21)"/>
<path d="M0 0 C1.32 0 2.64 0 4 0 C4 0.99 4 1.98 4 3 C2.68 2.67 1.36 2.34 0 2 C0 1.34 0 0.68 0 0 Z " fill="#3E3737" transform="translate(156,18)"/>
<path d="M0 0 C0.99 0.33 1.98 0.66 3 1 C2.67 1.99 2.34 2.98 2 4 C1.34 4 0.68 4 0 4 C0 2.68 0 1.36 0 0 Z " fill="#4C4241" transform="translate(105,32)"/>
<path d="M0 0 C1.32 0 2.64 0 4 0 C3.67 0.99 3.34 1.98 3 3 C2.01 2.67 1.02 2.34 0 2 C0 1.34 0 0.68 0 0 Z " fill="#423133" transform="translate(107,30)"/>
</svg>
